HIERARCHY
ROOT mixamorig:Hips
{
	OFFSET 0.000000 201.639420 0.000000
	CHANNELS 6 Xposition Yposition Zposition Xrotation Yrotation Zrotation
	JOINT mixamorig:Spine
	{
		OFFSET 0.006200 19.524994 -2.481800
		CHANNELS 3 Xrotation Yrotation Zrotation
		JOINT mixamorig:Spine1
		{
			OFFSET -0.000900 22.835007 -2.825400
			CHANNELS 3 Xrotation Yrotation Zrotation
			JOINT mixamorig:Spine2
			{
				OFFSET -0.020600 26.552490 -3.193300
				CHANNELS 3 Xrotation Yrotation Zrotation
				JOINT mixamorig:Neck
				{
					OFFSET -0.060000 30.701813 1.352200
					CHANNELS 3 Xrotation Yrotation Zrotation
					JOINT mixamorig:Head
					{
						OFFSET -0.087200 22.547607 3.670900
						CHANNELS 3 Xrotation Yrotation Zrotation
						JOINT mixamorig:HeadTop_End
						{
							OFFSET -0.830600 40.355194 7.893500
							CHANNELS 3 Xrotation Yrotation Zrotation
							End Site
							{
								OFFSET 0.000000 30.592346 0.000000
							}
						}
						JOINT mixamorig:RightEye
						{
							OFFSET -6.302100 18.118591 16.197100
							CHANNELS 3 Xrotation Yrotation Zrotation
							End Site
							{
								OFFSET 0.000000 30.592346 0.000000
							}
						}
						JOINT mixamorig:LeftEye
						{
							OFFSET 6.741500 18.382690 16.401899
							CHANNELS 3 Xrotation Yrotation Zrotation
							End Site
							{
								OFFSET 0.000000 30.592346 0.000000
							}
						}
					}
				}
				JOINT mixamorig:LeftShoulder
				{
					OFFSET 11.924900 18.230499 1.425400
					CHANNELS 3 Xrotation Yrotation Zrotation
					JOINT mixamorig:LeftArm
					{
						OFFSET 25.435989 -0.697632 -5.229300
						CHANNELS 3 Xrotation Yrotation Zrotation
						JOINT mixamorig:LeftForeArm
						{
							OFFSET 54.684776 0.000000 0.000000
							CHANNELS 3 Xrotation Yrotation Zrotation
							JOINT mixamorig:LeftHand
							{
								OFFSET 55.098175 0.000000 0.000000
								CHANNELS 3 Xrotation Yrotation Zrotation
								JOINT mixamorig:LeftHandMiddle1
								{
									OFFSET 23.369751 0.000000 0.000000
									CHANNELS 3 Xrotation Yrotation Zrotation
									JOINT mixamorig:LeftHandMiddle2
									{
										OFFSET 6.378677 0.000000 0.000000
										CHANNELS 3 Xrotation Yrotation Zrotation
										JOINT mixamorig:LeftHandMiddle3
										{
											OFFSET 6.148331 0.000000 0.000000
											CHANNELS 3 Xrotation Yrotation Zrotation
											JOINT mixamorig:LeftHandMiddle4
											{
												OFFSET 6.582504 0.000000 0.000000
												CHANNELS 3 Xrotation Yrotation Zrotation
												End Site
												{
													OFFSET -1.168900 6.395691 1.028606
												}
											}
										}
									}
								}
								JOINT mixamorig:LeftHandThumb1
								{
									OFFSET 7.235672 -3.848206 5.434273
									CHANNELS 3 Xrotation Yrotation Zrotation
									JOINT mixamorig:LeftHandThumb2
									{
										OFFSET 6.568451 -3.792297 3.792300
										CHANNELS 3 Xrotation Yrotation Zrotation
										JOINT mixamorig:LeftHandThumb3
										{
											OFFSET 6.063080 -3.500519 3.500518
											CHANNELS 3 Xrotation Yrotation Zrotation
											JOINT mixamorig:LeftHandThumb4
											{
												OFFSET 4.793182 -2.767334 2.767349
												CHANNELS 3 Xrotation Yrotation Zrotation
												End Site
												{
													OFFSET 0.101639 6.054260 1.275483
												}
											}
										}
									}
								}
								JOINT mixamorig:LeftHandIndex1
								{
									OFFSET 23.101074 -0.309540 4.992809
									CHANNELS 3 Xrotation Yrotation Zrotation
									JOINT mixamorig:LeftHandIndex2
									{
										OFFSET 6.226883 0.000000 0.000000
										CHANNELS 3 Xrotation Yrotation Zrotation
										JOINT mixamorig:LeftHandIndex3
										{
											OFFSET 6.094330 0.000000 0.000000
											CHANNELS 3 Xrotation Yrotation Zrotation
											JOINT mixamorig:LeftHandIndex4
											{
												OFFSET 5.482605 0.000000 0.000000
												CHANNELS 3 Xrotation Yrotation Zrotation
												End Site
												{
													OFFSET -1.427902 5.233032 0.797164
												}
											}
										}
									}
								}
								JOINT mixamorig:LeftHandRing1
								{
									OFFSET 22.299240 0.021149 -3.964172
									CHANNELS 3 Xrotation Yrotation Zrotation
									JOINT mixamorig:LeftHandRing2
									{
										OFFSET 6.321869 0.000000 0.000000
										CHANNELS 3 Xrotation Yrotation Zrotation
										JOINT mixamorig:LeftHandRing3
										{
											OFFSET 5.899796 0.000000 0.000000
											CHANNELS 3 Xrotation Yrotation Zrotation
											JOINT mixamorig:LeftHandRing4
											{
												OFFSET 6.517899 0.000000 0.000000
												CHANNELS 3 Xrotation Yrotation Zrotation
												End Site
												{
													OFFSET -1.637299 6.232208 0.980890
												}
											}
										}
									}
								}
								JOINT mixamorig:LeftHandPinky1
								{
									OFFSET 20.463791 -0.302338 -8.562233
									CHANNELS 3 Xrotation Yrotation Zrotation
									JOINT mixamorig:LeftHandPinky2
									{
										OFFSET 6.908646 0.000000 0.000000
										CHANNELS 3 Xrotation Yrotation Zrotation
										JOINT mixamorig:LeftHandPinky3
										{
											OFFSET 4.622849 0.000000 0.000000
											CHANNELS 3 Xrotation Yrotation Zrotation
											JOINT mixamorig:LeftHandPinky4
											{
												OFFSET 5.216080 0.000000 0.000000
												CHANNELS 3 Xrotation Yrotation Zrotation
												End Site
												{
													OFFSET -0.606308 5.116241 0.814926
												}
											}
										}
									}
								}
							}
						}
					}
				}
				JOINT mixamorig:RightShoulder
				{
					OFFSET -12.001300 18.284088 1.348900
					CHANNELS 3 Xrotation Yrotation Zrotation
					JOINT mixamorig:RightArm
					{
						OFFSET -25.308500 -0.751312 -5.164599
						CHANNELS 3 Xrotation Yrotation Zrotation
						JOINT mixamorig:RightForeArm
						{
							OFFSET -54.684429 0.000000 0.000000
							CHANNELS 3 Xrotation Yrotation Zrotation
							JOINT mixamorig:RightHand
							{
								OFFSET -55.150291 0.000000 0.000000
								CHANNELS 3 Xrotation Yrotation Zrotation
								JOINT mixamorig:RightHandMiddle1
								{
									OFFSET -23.317566 0.000000 0.000000
									CHANNELS 3 Xrotation Yrotation Zrotation
									JOINT mixamorig:RightHandMiddle2
									{
										OFFSET -6.378403 0.000000 0.000000
										CHANNELS 3 Xrotation Yrotation Zrotation
										JOINT mixamorig:RightHandMiddle3
										{
											OFFSET -6.148193 0.000000 0.000000
											CHANNELS 3 Xrotation Yrotation Zrotation
											JOINT mixamorig:RightHandMiddle4
											{
												OFFSET -6.583389 0.000000 0.000000
												CHANNELS 3 Xrotation Yrotation Zrotation
												End Site
												{
													OFFSET 1.171692 6.395905 1.029786
												}
											}
										}
									}
								}
								JOINT mixamorig:RightHandThumb1
								{
									OFFSET -7.190521 -3.860474 5.435846
									CHANNELS 3 Xrotation Yrotation Zrotation
									JOINT mixamorig:RightHandThumb2
									{
										OFFSET -6.567429 -3.791718 3.791708
										CHANNELS 3 Xrotation Yrotation Zrotation
										JOINT mixamorig:RightHandThumb3
										{
											OFFSET -6.062469 -3.500153 3.500166
											CHANNELS 3 Xrotation Yrotation Zrotation
											JOINT mixamorig:RightHandThumb4
											{
												OFFSET -4.792618 -2.767029 2.767022
												CHANNELS 3 Xrotation Yrotation Zrotation
												End Site
												{
													OFFSET -0.100327 6.053253 1.276754
												}
											}
										}
									}
								}
								JOINT mixamorig:RightHandIndex1
								{
									OFFSET -23.048981 -0.310791 4.992554
									CHANNELS 3 Xrotation Yrotation Zrotation
									JOINT mixamorig:RightHandIndex2
									{
										OFFSET -6.227539 0.000000 0.000000
										CHANNELS 3 Xrotation Yrotation Zrotation
										JOINT mixamorig:RightHandIndex3
										{
											OFFSET -6.095047 0.000000 0.000000
											CHANNELS 3 Xrotation Yrotation Zrotation
											JOINT mixamorig:RightHandIndex4
											{
												OFFSET -5.484772 0.000000 0.000000
												CHANNELS 3 Xrotation Yrotation Zrotation
												End Site
												{
													OFFSET 1.420593 5.237305 0.797056
												}
											}
										}
									}
								}
								JOINT mixamorig:RightHandRing1
								{
									OFFSET -22.246323 0.020569 -3.963762
									CHANNELS 3 Xrotation Yrotation Zrotation
									JOINT mixamorig:RightHandRing2
									{
										OFFSET -6.322128 0.000000 0.000000
										CHANNELS 3 Xrotation Yrotation Zrotation
										JOINT mixamorig:RightHandRing3
										{
											OFFSET -5.900024 0.000000 0.000000
											CHANNELS 3 Xrotation Yrotation Zrotation
											JOINT mixamorig:RightHandRing4
											{
												OFFSET -6.518356 0.000000 0.000000
												CHANNELS 3 Xrotation Yrotation Zrotation
												End Site
												{
													OFFSET 1.636398 6.232697 0.982186
												}
											}
										}
									}
								}
								JOINT mixamorig:RightHandPinky1
								{
									OFFSET -20.411011 -0.303314 -8.561701
									CHANNELS 3 Xrotation Yrotation Zrotation
									JOINT mixamorig:RightHandPinky2
									{
										OFFSET -6.907349 0.000000 0.000000
										CHANNELS 3 Xrotation Yrotation Zrotation
										JOINT mixamorig:RightHandPinky3
										{
											OFFSET -4.623840 0.000000 0.000000
											CHANNELS 3 Xrotation Yrotation Zrotation
											JOINT mixamorig:RightHandPinky4
											{
												OFFSET -5.218353 0.000000 0.000000
												CHANNELS 3 Xrotation Yrotation Zrotation
												End Site
												{
													OFFSET 0.602097 5.118835 0.816273
												}
											}
										}
									}
								}
							}
						}
					}
				}
			}
		}
	}
	JOINT mixamorig:LeftUpLeg
	{
		OFFSET 18.168400 -13.561905 -0.039000
		CHANNELS 3 Xrotation Yrotation Zrotation
		JOINT mixamorig:LeftLeg
		{
			OFFSET 0.577358 -80.825211 -3.695000
			CHANNELS 3 Xrotation Yrotation Zrotation
			JOINT mixamorig:LeftFoot
			{
				OFFSET -0.577356 -83.370262 -6.520700
				CHANNELS 3 Xrotation Yrotation Zrotation
				JOINT mixamorig:LeftToeBase
				{
					OFFSET 0.750401 -20.798306 25.135401
					CHANNELS 3 Xrotation Yrotation Zrotation
					JOINT mixamorig:LeftToe_End
					{
						OFFSET -0.000500 0.001200 19.917799
						CHANNELS 3 Xrotation Yrotation Zrotation
						End Site
						{
							OFFSET 0.000000 19.917805 0.000000
						}
					}
				}
			}
		}
	}
	JOINT mixamorig:RightUpLeg
	{
		OFFSET -18.162500 -13.585098 -0.041000
		CHANNELS 3 Xrotation Yrotation Zrotation
		JOINT mixamorig:RightLeg
		{
			OFFSET -0.595024 -80.945297 -3.631900
			CHANNELS 3 Xrotation Yrotation Zrotation
			JOINT mixamorig:RightFoot
			{
				OFFSET 0.595024 -83.218193 -6.561200
				CHANNELS 3 Xrotation Yrotation Zrotation
				JOINT mixamorig:RightToeBase
				{
					OFFSET -0.753601 -20.807106 25.115000
					CHANNELS 3 Xrotation Yrotation Zrotation
					JOINT mixamorig:RightToe_End
					{
						OFFSET 0.000299 0.001700 19.918200
						CHANNELS 3 Xrotation Yrotation Zrotation
						End Site
						{
							OFFSET 0.000000 19.918203 0.000000
						}
					}
				}
			}
		}
	}
}
MOTION
Frames: 4
Frame Time: 0.033333
0.070452 19.029465 -166.436707 -91.846107 7.456892 7.302908 0.456567 -5.650633 -5.955422 -0.555642 -1.157788 0.191475 -0.535437 -1.165496 0.201178 3.672810 0.293349 -2.947605 16.622951 -2.126910 -3.019115 -0.000002 0.000000 0.000000 -0.000002 0.000000 0.000000 -0.000002 0.000000 0.000000 -1.762644 -1.112959 6.201914 50.048020 -8.637215 -19.917252 -0.000009 -18.766442 -0.000004 2.797554 11.799811 1.297597 1.387647 5.885545 -15.455152 -0.000001 -0.000062 -0.000046 0.023413 -0.568640 4.717470 -0.000001 0.000000 0.000002 9.437587 15.498486 -5.038860 1.207944 -0.209767 -1.051002 -2.252366 -1.345499 3.000254 0.000003 -0.000001 0.000002 4.656582 9.612541 -30.853488 0.000005 0.000009 -0.000008 0.045265 -0.789802 6.559278 -0.000002 -0.000000 -0.000001 0.076655 8.860103 0.030806 0.000013 -0.000007 0.000057 0.000845 0.107220 -0.888483 -0.000000 0.000001 -0.000000 1.058740 13.806649 -3.690431 -0.018111 -4.056673 -0.491034 0.019730 0.521913 -4.328970 -0.000001 0.000000 -0.000000 -1.777290 0.124807 -4.231638 48.854724 7.991350 19.137990 -0.000011 19.046797 0.000012 -18.543629 -12.036401 -15.650071 4.412300 -15.227154 16.626472 0.281805 -1.963226 16.336183 12.214276 1.394583 14.791367 0.000003 -0.000001 -0.000002 30.719858 -27.022725 24.028588 1.576616 0.212848 1.630768 -10.116838 23.247153 0.944347 0.000000 0.000001 0.000001 10.193406 -16.744144 34.552558 0.177711 -1.565019 12.955272 0.108634 -1.226811 10.120792 -0.000002 -0.000003 -0.000005 3.027513 -13.708160 12.551184 0.221351 -1.743924 14.467691 14.843961 2.347893 16.456794 -0.000002 -0.000003 0.000004 1.339286 -13.127176 5.277719 0.136988 -1.376172 11.368977 0.128991 -1.335843 11.031442 -0.000006 0.000000 0.000001 -1.862573 -16.119871 13.313303 -1.805574 1.600336 0.277822 31.668329 -8.237337 -27.543306 6.098524 -0.000004 0.000005 -0.000002 0.000000 -0.000000 -11.455286 -13.552256 -27.351590 5.962077 -2.937603 -0.220563 38.763297 -1.227767 6.795037 4.423933 -0.000006 -0.000008 0.000003 0.000001 -0.000001 
0.149376 19.139755 -166.407516 -92.037154 7.354144 7.334868 0.587509 -5.627677 -5.895412 -0.549228 -1.152018 0.121309 -0.530348 -1.159608 0.131265 3.681856 0.266085 -2.859729 16.739861 -2.124345 -2.992942 -0.000001 0.000000 0.000000 -0.000001 0.000000 0.000000 -0.000001 0.000000 0.000000 -1.740192 -1.273586 6.464640 49.930698 -8.685467 -20.339185 -0.000019 -18.673585 -0.000009 2.616569 11.907051 1.726403 1.409745 5.898201 -15.700689 0.000004 -0.000066 0.000017 0.023453 -0.568992 4.720356 0.000004 0.000000 0.000001 9.650117 15.433552 -5.419336 1.207941 -0.209767 -1.051000 -2.191132 -1.237684 2.984753 0.000002 -0.000001 0.000001 4.726528 9.605098 -31.372408 -0.000000 0.000005 -0.000001 0.045246 -0.789780 6.559154 0.000001 0.000001 -0.000000 0.066087 8.681600 0.080749 0.000018 0.012342 -0.102253 0.001167 0.126975 -1.052205 0.000001 -0.000001 0.000001 1.058739 13.806647 -3.690430 -0.018106 -4.056670 -0.491036 0.022335 0.555258 -4.606165 -0.000002 0.000000 0.000001 -1.762818 0.151538 -4.124452 48.732799 8.008655 19.125575 -0.000003 18.918553 0.000003 -18.333812 -11.897477 -15.561242 4.468800 -15.451329 16.565340 0.280727 -1.959529 16.304570 12.228428 1.388516 14.691759 0.000000 -0.000003 0.000000 30.915116 -27.268031 24.124587 1.576634 0.212850 1.630768 -10.048742 23.088655 0.953812 0.000002 0.000000 0.000000 10.292427 -16.909644 34.501772 0.176425 -1.559435 12.908316 0.106889 -1.216923 10.038291 -0.000001 -0.000004 -0.000003 3.059864 -13.893827 12.492716 0.220417 -1.740243 14.436424 14.866603 2.343746 16.384234 0.000001 0.000001 -0.000001 1.526095 -13.479675 5.934692 0.112564 -1.248729 10.303668 0.122106 -1.299958 10.731489 -0.000002 0.000002 -0.000001 -1.644891 -15.923591 13.259398 -1.852043 0.759661 0.223266 31.885778 -7.802315 -27.863810 6.059201 -0.000005 -0.000003 -0.000002 0.000001 0.000000 -11.246159 -13.809115 -27.441176 5.614978 -3.293648 -0.236649 39.461158 -1.331366 6.883408 3.457682 0.000003 -0.000002 0.000002 0.000001 0.000000 
0.215714 19.227493 -166.386765 -92.190704 7.254716 7.382248 0.680417 -5.599460 -5.856918 -0.534267 -1.145514 0.059483 -0.516529 -1.152920 0.069452 3.682289 0.242882 -2.778926 16.845398 -2.116849 -2.960483 0.000000 0.000000 -0.000000 0.000000 0.000000 -0.000000 0.000000 0.000000 -0.000000 -1.722214 -1.374601 6.727811 49.801645 -8.812450 -20.700258 -0.000005 -18.546802 0.000004 2.381355 11.992554 2.164265 1.441383 5.941767 -15.951391 0.000001 -0.000066 -0.000007 0.023566 -0.570584 4.733549 0.000002 0.000001 0.000001 9.885476 15.399194 -5.815115 1.207937 -0.209763 -1.051007 -2.135801 -1.140311 2.970666 0.000002 0.000000 -0.000000 4.833114 9.652058 -31.905333 0.000007 0.000001 0.000008 0.045248 -0.789779 6.559065 -0.000003 0.000000 -0.000003 0.056175 8.504821 0.128772 0.000099 0.035352 -0.292913 0.001378 0.138459 -1.147403 -0.000001 0.000001 -0.000000 1.058735 13.806653 -3.690431 -0.018102 -4.056667 -0.491066 0.023661 0.571484 -4.741089 0.000003 0.000000 0.000001 -1.746500 0.170220 -4.034312 48.680736 8.072883 19.097364 0.000005 18.804547 -0.000006 -18.271304 -11.792713 -15.537617 4.541351 -15.706905 16.529478 0.279284 -1.954559 16.262043 12.241221 1.380037 14.572016 0.000002 0.000001 0.000001 31.103893 -27.484324 24.226355 1.576630 0.212847 1.630761 -9.995021 22.964184 0.960710 0.000000 0.000001 -0.000002 10.419790 -17.096155 34.493272 0.174660 -1.551729 12.843386 0.104671 -1.204342 9.933556 0.000003 -0.000002 0.000001 3.103817 -14.107390 12.456817 0.219125 -1.735187 14.393599 14.890111 2.336896 16.292605 -0.000001 -0.000000 0.000001 1.823914 -13.631495 7.181457 0.088954 -1.110889 9.155570 0.104709 -1.204609 9.935830 -0.000002 0.000001 -0.000001 -1.525447 -15.780124 13.161366 -1.821367 -0.187888 0.160419 32.119084 -7.347762 -28.227258 6.036586 -0.000006 -0.000000 -0.000002 0.000000 0.000000 -11.142758 -14.023440 -27.564434 5.404470 -3.549366 -0.266489 39.996116 -1.410810 7.075868 2.591970 0.000004 -0.000012 0.000001 -0.000000 -0.000001 
0.254507 19.291946 -166.387299 -92.295294 7.152301 7.417013 0.741966 -5.560218 -5.835627 -0.515560 -1.137111 0.012861 -0.498737 -1.144298 0.022683 3.673671 0.222871 -2.713847 16.938523 -2.122770 -2.924222 0.000001 0.000000 0.000000 0.000001 0.000000 0.000000 0.000001 0.000000 0.000000 -1.713099 -1.415745 6.988063 49.652115 -9.032766 -21.001524 -0.000008 -18.344618 -0.000004 2.149071 12.038185 2.564326 1.476954 6.003601 -16.177790 0.000002 -0.000059 -0.000077 0.023772 -0.572920 4.752993 -0.000000 0.000002 0.000003 10.110446 15.388631 -6.178087 1.207940 -0.209764 -1.051008 -2.087453 -1.055277 2.958282 0.000000 -0.000000 0.000001 4.956473 9.733812 -32.389119 0.000006 0.000003 0.000005 0.045262 -0.789759 6.558992 0.000001 0.000002 0.000001 0.047880 8.348602 0.169926 0.000231 0.057848 -0.479360 0.001453 0.141622 -1.173612 -0.000000 0.000000 -0.000001 1.058732 13.806649 -3.690424 -0.018110 -4.056672 -0.491041 0.023629 0.571214 -4.738849 -0.000003 0.000001 -0.000002 -1.732605 0.182576 -3.971792 48.746193 8.207719 19.043908 0.000007 18.682412 -0.000001 -18.434401 -11.721331 -15.608902 4.640077 -15.991180 16.559278 0.277181 -1.947306 16.199988 12.248336 1.367445 14.425959 -0.000001 0.000001 0.000001 31.309666 -27.649804 24.372309 1.576625 0.212854 1.630762 -9.957006 22.876733 0.964646 -0.000002 0.000001 0.000001 10.592870 -17.296286 34.591947 0.171841 -1.539256 12.738333 0.101628 -1.186878 9.788086 -0.000000 0.000001 0.000001 3.167759 -14.347997 12.479680 0.217167 -1.727559 14.328948 14.910168 2.324627 16.172392 0.000001 -0.000000 0.000001 2.247176 -13.505354 9.195718 0.067181 -0.966153 7.954151 0.076951 -1.033662 8.514062 0.000003 0.000001 0.000001 -1.430755 -15.676141 13.102737 -1.836715 -0.358042 0.104362 32.408619 -7.578391 -28.173328 6.038882 0.000002 0.000005 -0.000004 -0.000000 -0.000000 -11.130416 -14.211838 -27.704190 5.278258 -3.766033 -0.289964 40.398636 -1.409022 7.355497 1.822224 -0.000007 -0.000012 -0.000001 -0.000000 -0.000002 
